<?xml version="1.0" encoding="UTF-8"?>
<svg id="Layer_2" data-name="Layer 2" xmlns="http://www.w3.org/2000/svg" viewBox="0 0 368.46 333.2">
  <defs>
    <style>
      .cls-1 {
        font-family: Broadway, Broadway;
        font-size: 306.8px;
      }
    </style>
  </defs>
  <g id="Layer_1-2" data-name="Layer 1">
    <g>
      <text class="cls-1" transform="translate(2.14 257.1)"><tspan x="0" y="0">A</tspan></text>
      <path d="M368.3,55.98l.16-10.8c0-6.45-2.06-9.68-6.18-9.68-2.71,0-4.5.9-5.37,2.7-.87,1.8-1.3,5.3-1.3,10.5l.48,19.88.48,44.7c-14.02.64-31.85.95-53.5.95-23.57,0-40.76-.32-51.59-.95l.79-66.5.16-8.27h-96.44l96.04,174.79-.42-44.19-.14-43.76,68.11-.95,30.96.76,6.03.19v29.49l-.48,79.6-.16,13.48c0,3.91.45,6.61,1.37,8.09.91,1.48,2.6,2.22,5.07,2.22s3.94-.69,4.74-2.06c.8-1.37,1.21-3.97,1.21-7.78l-.38-41.43-.57-59.06.57-56.68.38-35.24Z"/>
    </g>
  </g>
</svg>